<?xml version="1.0" standalone="no"?>
<!DOCTYPE svg PUBLIC "-//W3C//DTD SVG 1.1//EN" "http://www.w3.org/Graphics/SVG/1.1/DTD/svg11.dtd" >
<svg xmlns="http://www.w3.org/2000/svg">
<metadata></metadata>
<defs>
<font id="vincehand_ii_trialregular" horiz-adv-x="2048" >
<font-face units-per-em="2048" ascent="1638" descent="-410" />
<missing-glyph horiz-adv-x="555" />
<glyph />
<glyph />
<glyph unicode="&#xd;" />
<glyph unicode=" "  horiz-adv-x="555" />
<glyph unicode="&#x09;" horiz-adv-x="555" />
<glyph unicode="&#xa0;" horiz-adv-x="555" />
<glyph unicode="," horiz-adv-x="393" d="M113 -156q30 44 39 78q22 100 8 203q44 53 78 53q27 0 55 -14q31 -16 31 -84q0 -52 -15 -117q-14 -67 -112 -188q-20 -23 -37 -23q-15 0 -21 15q-11 11 -26 77z" />
<glyph unicode="." horiz-adv-x="399" d="M164 53q0 53 41 88q16 13 33 13q46 0 98 -64q6 -6 6 -18q0 -18 -15 -47.5t-24 -36.5q-41 -35 -67 -35q-10 0 -62 24q-10 65 -10 76z" />
<glyph unicode="A" horiz-adv-x="999" d="M10 -39q0 10 66 139q84 162 108 219q-45 9 -86 15q-59 18 -59 84q0 82 129 82q16 0 47 8q36 8 49 8q145 343 213 490q231 491 303 497q8 1 15 1q82 0 96 -91q0 -9 -23 -35q-29 -33 -32 -43q-17 -49 -17 -174q0 -129 19 -379l18 -221q18 -11 29 -22q25 -28 35 -72 q-41 -27 -41 -113q0 -42 8 -123q8 -79 8 -147q0 -54 -6 -107l-5 -5q-5 -4 -14.5 -8.5t-19.5 -4.5q-7 0 -23 4q-50 21 -77 178q-19 139 -39 265q-152 -23 -367 -72q-10 -3 -51 -72l-55 -98q-34 -60 -148 -227q-21 -15 -43 -15q-37 0 -37 39zM426 520q45 4 125 17q68 8 123 8 h22q-20 206 -43 491q-101 -197 -227 -516z" />
<glyph unicode="B" horiz-adv-x="1189" d="M-270 1305q0 46 80 90q28 15 127 53q54 15 186 33q112 14 147 14h111q59 -2 131 -2q3 15 31 96q43 21 71 21q56 0 56 -82q0 -41 -13 -51q31 -7 59.5 -14t43.5 -10.5t18 -4.5q66 -17 115 -43q262 -126 262 -320q0 -137 -70 -219q-61 -70 -217 -157q191 -80 191 -275 q0 -167 -252 -323q-207 -127 -371 -148q-23 10 -35 10q0 -256 -79 -256q-13 1 -27 2q-11 44 -25 144q-14 104 -14 166q0 9 6 200q8 169 8 201q0 27 6 64l3 26q-14 0 -80 -14q-63 -14 -80 -14q-82 0 -82 71q0 79 110 113q28 8 84.5 24.5t83.5 24.5q5 39 27 152 q49 212 125 489q-15 3 -43 3q-16 0 -37 -1q-77 -6 -106 -6q-209 0 -480 -143q-34 0 -55 41q-16 29 -16 45zM401 111q165 15 326 118q179 113 179 246q0 8 -1 17q-44 52 -74 69q-47 27 -149 27q-49 0 -127 -19q-123 -30 -125 -30q-16 -148 -22 -222q-9 -88 -9 -152 q0 -30 2 -54zM467 741q103 0 127 7q110 25 242 94q184 99 184 205q0 103 -115 192q-104 78 -229 102l-55 11q-37 -94 -91 -316q-58 -224 -55 -243z" />
<glyph unicode="C" horiz-adv-x="1173" d="M84 451q0 149 115 391q123 261 288 426q199 202 392 202q80 0 155 -57q80 -59 80 -127q0 -28 -24 -74q-24 -47 -56 -47h-43q-35 127 -119 127h-26q-14 -2 -31 -2q-116 0 -254 -153q-103 -114 -201 -306q-81 -159 -92 -202q-3 -12 -20 -88q-7 -40 -7 -74q0 -12 1 -23 q15 -155 100 -260q93 -112 248 -112q124 0 264 94q14 10 145 104q20 4 23 4q41 10 51 -8t-12 -55q-10 -8 -117 -115q-71 -68 -119 -94q-44 -23 -110 -41q-89 -27 -142 -27q-227 0 -364 162q-125 143 -125 355z" />
<glyph unicode="D" horiz-adv-x="1144" d="M-125 1358q0 35 41 59q26 18 57 21h3q23 0 174 -37q160 -39 180 -39q10 10 28 33q27 34 80 37q11 1 21 1q51 0 67 -26q8 -16 11 -72q542 -157 563 -422l2 -34q0 -238 -277 -480q-220 -190 -501 -311q-26 -10 -29 -37q-4 -4 -4 -31q-3 -32 -53 -53l-43 -4q-35 23 -35 53 q-39 9 -49 29q-8 25 -15 55q39 44 72 70q51 421 145 1010q-90 25 -221 34q-106 8 -149 29q-59 27 -68 115zM330 231l59 23q159 78 334 231q234 205 234 369q0 10 -1 20q-9 91 -180 189q-155 89 -270 89q-11 0 -21 -1q-51 -189 -125 -668z" />
<glyph unicode="E" horiz-adv-x="1107" d="M37 935q1 29 59 60q60 32 183 66q0 3 -3 37q-2 18 -2 49q0 149 105 149q73 0 82 -61q1 -18 2 -55t2 -56l190 43q142 29 207 29q129 0 185 -33q10 -13 10 -33q0 -9 -193 -61q-253 -67 -420 -127q-28 -79 -45 -188q-15 -88 -14 -149q0 -26 2 -48q98 23 346 76 q219 51 256 51h47q21 -43 21 -72q0 -40 -281 -123q-122 -44 -407 -114q0 -32 10 -70q29 -100 87 -157.5t130 -57.5q35 0 80 10q30 6 106 58q68 45 101 45q30 0 61 -31q-9 -42 -108 -113q-111 -80 -232 -102q-10 -2 -24 -2q-36 0 -93 12q-121 30 -204 166q-21 34 -95 205 q-29 9 -63 55q-29 43 -29 60q0 35 113 84v15q0 71 24 234l23 82q-127 -53 -143 -53q-56 0 -68 43q-1 14 -4 39q-4 34 -4 38z" />
<glyph unicode="F" horiz-adv-x="1017" d="M4 641q0 58 107 98q77 21 153 39q-2 8 -2 22q0 41 14 128q15 106 29 149q7 36 27 97h-13q-28 0 -92 -5q-71 -8 -84 -8q-35 0 -60.5 25.5t-25.5 56.5q0 49 40 79t98 30q35 0 86 2q21 1 43 2l33 1.5t14 0.5q5 0 45 63q39 63 78 72q8 1 16 1q33 0 60 -20q34 -25 34 -65 q0 -33 -20 -66q42 0 188 -28q165 -30 234 -64q32 -14 32 -53q0 -25 -12.5 -47.5t-26.5 -22.5q-5 0 -51 19q-40 17 -74 20q-13 1 -35.5 3t-57.5 5t-64 5q-91 8 -144 8q-27 0 -55 -4q-17 -21 -57 -162q-44 -152 -47 -213q0 -16 84 -16q96 0 159 2q24 1 53.5 2t45.5 1.5t24 0.5 q149 0 176 -68l-32 -61q-161 -12 -310 -27q-176 -18 -213 -37q-8 -5 -8 -112q0 -248 23 -383q37 -179 37 -207q0 -51 -58 -51q-36 13 -76 143q-43 139 -57 276q-7 106 -24 306q-13 0 -78 -19q-66 -16 -84 -16q-72 0 -72 98z" />
<glyph unicode="G" horiz-adv-x="1034" d="M47 201q-1 22 -1 46q0 192 87 464q107 329 260 536q175 236 350 236h13q54 -1 91.5 -42t37.5 -87q0 -66 -29 -135q-5 -7 -9.5 -9.5t-8 -3t-13.5 -0.5q-32 0 -53 47q-21 50 -45 56q-4 1 -8 1q-30 0 -80 -34q-58 -39 -107 -100q-115 -101 -227 -422q-104 -302 -104 -490 q0 -217 164 -217q68 0 200 105q133 106 133 170l15 129q-4 1 -10 1q-27 0 -87 -12q-50 -10 -89 -10q-17 0 -31 2q-20 13 -37 35.5t-17 34.5v6q0 36 33 57q39 20 88 23q90 0 262 35q37 18 93 39q26 8 45.5 0t23.5 -41q-15 -22 -66.5 -65.5t-60.5 -63.5q-20 -44 -20 -138 t39 -176q43 -94 43 -101q0 -25 -27 -57q-27 -30 -47 -30h-3q-64 0 -120 114q-114 -111 -180 -149q-95 -57 -206 -57h-11q-146 6 -219 110q-56 77 -62 193z" />
<glyph unicode="H" horiz-adv-x="987" d="M43 0q0 15 37 233q43 242 45 291q-11 11 -27 35q-20 26 -20 66q0 36 74 71l18 244q8 168 10 252q26 220 108 220q4 0 9 -1q70 -9 70 -84l-68 -606q34 0 104 2q144 4 170 4q34 1 58 1q40 0 51 -3q14 25 14 350q7 42 21.5 127t21.5 127q53 234 146 234q82 0 82 -56 q0 1 -4.5 -13t-14.5 -44.5t-24 -75.5q-40 -133 -43 -190q-14 -106 -27 -183q-25 -220 -25 -387q0 -187 -22 -696q-58 -43 -80 -43h-1q-6 0 -16 8q-10 9 -18 18l-8 9q8 31 8 158q0 2 -0.5 20.5t-1.5 60t-2 89.5q-2 109 -2 233q0 82 -2 133q-30 0 -174 -18q-161 -20 -234 -43 q-6 -34 -25.5 -137t-29.5 -160q-47 -236 -76 -297q-24 -17 -39 -17q-25 0 -44 23t-19 45z" />
<glyph unicode="I" horiz-adv-x="874" d="M311 139q7 104 47 465q41 407 41 465q0 145 -6 160q-76 -12 -147 -68q-61 -49 -121 -49q-19 0 -57 21q-3 8 -3 18q0 21 11 53q0 89 215 160q164 56 263 56q10 0 19 -1q128 -6 230 -35q87 -27 100 -55l-18 -53q-83 3 -162 6h-31q-93 0 -121 -16q-44 -286 -71 -613 l-43 -491q109 -8 166 -10q102 -6 145 -52q-9 -50 -66 -53q-37 -2 -110 -2q-115 -8 -326 -70l-102 -30q-133 0 -133 75q0 79 280 119z" />
<glyph unicode="J" horiz-adv-x="829" d="M-55 43q0 87 53 158q52 73 127 73q21 0 53.5 -19t32.5 -36q3 -26 -10 -39q-69 -12 -97 -28q-38 -23 -38 -78q0 -69 71 -152q74 -85 153 -85q7 0 15 1q109 15 191 213q58 139 67 236q19 230 19 565q0 347 -15 614q6 20 27 64q9 22 51 37q32 14 45 14q17 0 35 -13t18 -26 v-3q0 -3 -0.5 -11t-1 -18.5t-1 -26.5t-1.5 -34t-2 -42.5t-2 -50.5q-8 -167 -8 -221l-4 -334q0 -48 -2 -107q0 -88 -6 -164q-6 -228 -76 -458q-114 -377 -354 -377q-120 0 -232 121q-108 120 -108 227z" />
<glyph unicode="K" horiz-adv-x="890" d="M53 -125q-1 22 -1 49q0 180 54 533l93 565q34 208 34 313q0 30 -4 76q-1 6 -1 13q0 32 26 62q31 36 70 38h3q29 0 51 -22q23 -24 25 -54q1 -13 1 -29q0 -105 -35 -317q-28 -166 -45 -283q0 -2 -6.5 -37t-6.5 -51q0 -22 8 -33q117 164 254 340q258 334 301 346q15 4 28 4 q32 0 50 -26q11 -21 11 -39q0 -12 -5 -23q-105 -121 -321 -395q-255 -325 -252 -375q3 -33 43 -96q41 -57 129 -176q81 -93 258 -250q6 -3 6 -10q0 -16 -28 -32.5t-48 -18.5h-2q-61 0 -241 174q-155 152 -205 225q-62 -84 -88 -244q-43 -241 -53 -274q-23 -23 -47 -23 q-13 0 -23 7q-20 28 -33 63z" />
<glyph unicode="L" horiz-adv-x="802" d="M70 14q0 77 26 418q22 314 35 418v19q0 139 41 360q65 342 164 342q24 0 49 -21t25 -39l-40 -151v-1l-1 -1v-1v-1v-1l-1 -1v-1v-1v-1l-1 -1v-1v-1v-1l-1 -1v-1v-1v-1l-1 -1v-1q-45 -179 -84 -436q-45 -315 -45 -669v-89q3 -60 32 -63h5q40 0 233 41q192 43 209 43h2h41 q28 -16 28 -41q0 -38 -71 -88q-96 -34 -217 -72q-159 -53 -271 -69q-24 4 -57 4l-31 14q-69 3 -69 98z" />
<glyph unicode="M" horiz-adv-x="1470" d="M55 -45q17 289 17 399v240l34 737q0 106 17 162q21 70 90 70q74 0 74 -82q0 -15 -25 -146q-22 -134 -31 -278q-8 -143 -20 -236l-4 -438q48 111 92 238q61 183 92 264q5 13 62 211q27 100 88 149h4q49 1 67 -27t19 -90q0 -33 -27 -276q-24 -243 -24 -344q0 -49 38 -236 q71 35 218 400q33 77 192 483q139 348 164 348q91 0 94 -137q0 -17 -43 -463q-43 -455 -43 -696q0 -99 8 -135q3 -54 43 -54q11 0 17 2q27 7 47 19q29 21 57 51q16 12 43 43q23 23 35 23q29 0 29 -37q0 -50 -90 -146q-99 -102 -181 -102q-78 0 -116 96q-13 34 -29 129 q-3 15 -3 68q0 127 17 475q0 13 15 139q16 134 16 135l14 101q-17 -30 -104 -258q-72 -192 -96 -248q-59 -146 -111 -242q-119 -223 -229 -223h-9q-62 44 -96 211q-28 143 -28 297q0 65 6 108q-5 -14 -61.5 -159t-84.5 -219q-144 -363 -190 -363q-55 0 -64 37z" />
<glyph unicode="N" horiz-adv-x="1046" d="M57 25v10q0 59 27 336q31 333 31 383q10 312 16 379q30 347 111 350q9 0 36 -8.5t31 -8.5q0 -3 7.5 -27t7.5 -32q0 -1 -2.5 -12.5t-8.5 -40.5t-12 -62q-27 -134 -29 -178q-9 -234 -24 -518q54 193 205 514q170 357 237 360h3q53 0 83 -31q30 -32 35 -100q4 -94 4 -161 q0 -282 -47 -813q-4 -46 -4 -70q0 -155 65 -244q3 -3 25 -6q7 1 22 2t21 2q31 6 49 21q67 48 180 139q9 -9 9 -25q0 -54 -74 -131q-83 -89 -205 -127q-24 -8 -47 -8q-107 0 -156 162q-30 100 -30 232v24l53 840q4 20 4 22q0 5 -6 2q-16 -4 -17 -4q-5 0 -8 6 q-120 -200 -227 -495q-100 -275 -143 -488q-11 -69 -43 -201q-10 -24 -50 -44.5t-71 -20.5q-21 -3 -43 33q-15 27 -15 39z" />
<glyph unicode="O" horiz-adv-x="905" d="M68 385q10 171 53 346q43 172 45 172q0 27 -8 92l-6 68q0 99 194 293q196 196 305 196q23 0 58 -12q34 -11 45.5 -31t11.5 -53q0 -26 -8 -78q-5 -27 -5 -49q0 -11 1 -22q6 -17 18.5 -53.5t18.5 -53.5q35 -112 51 -231q8 -53 8 -136q0 -93 -10 -225q-33 -230 -138 -422 q-155 -303 -309 -303q-325 0 -325 502zM197 385q0 -89 26 -180q43 -166 139 -166q35 0 64 16q20 0 84 82q63 79 102 166q105 252 105 549q0 35 -17 164q-22 141 -47 174h-5q-33 0 -42 37q-1 0 -4 65q-4 0 -29 13.5t-34 13.5q-105 0 -193 -234q-68 -179 -113 -440 q-36 -197 -36 -260z" />
<glyph unicode="P" horiz-adv-x="897" d="M-78 1415q0 30 53 60q45 26 62 26q6 0 80 -12q82 -10 100 -10q17 0 19 2q50 35 73 35q45 0 88 -70q18 -5 53.5 -16.5t53.5 -16.5q133 -48 201 -88q92 -56 153 -166q47 -86 47 -137q0 -188 -211 -354q-177 -139 -379 -191q6 -90 43 -291q37 -191 37 -206v-56 q-12 -24 -29 -24q-9 0 -18 6q-113 168 -168 538q-35 240 -35 410q0 230 9 313q3 25 5.5 47t3.5 31t1 10t0.5 4.5t1.5 10t2 12.5q3 16 -2 21q-14 0 -54.5 4t-43.5 4q-7 0 -17 -8.5t-18 -8.5q-46 0 -82 45q-29 43 -29 76zM297 702q0 -76 16 -98q100 6 262 119q191 132 191 272 q0 125 -162 207q-128 70 -235 70q-15 0 -27 -4q-14 -43 -25 -135q-14 -98 -14 -111q-9 -37 -9 -153q0 -69 3 -167z" />
<glyph unicode="Q" horiz-adv-x="1107" d="M41 371q0 132 104 379q116 276 273 462q190 228 379 228q29 0 64.5 -23t35.5 -41q0 -8 -18 -49q-16 -36 -29 -49q3 -28 45 -31q54 -6 63 -12q55 -43 89 -141q22 -74 22 -115q0 -244 -92 -457q-69 -160 -170 -278q-44 -47 -92 -101q-2 -15 -2 -29q0 -121 112 -241 q28 -28 107 -84q60 -42 57 -63q-24 -9 -53 -9q-112 0 -227 109q-118 111 -146 231q-122 -45 -213 -45q-136 0 -225 115q-84 110 -84 244zM178 356q0 -69 45 -129q59 -77 156 -77q78 0 164 45q-6 59 -6 120q0 278 118 287h10q62 0 62 -74q0 -6 -4 -26q-6 -30 -6 -135 q96 96 157 270q58 165 58 326q0 52 -19 104q-23 63 -71 63q-7 0 -40.5 -14t-41.5 -14q-40 0 -49 74q2 4 2 71q-154 -50 -344 -366q-191 -317 -191 -525z" />
<glyph unicode="R" horiz-adv-x="952" d="M59 -20q0 54 64 286q63 229 63 238q0 26 -24 26q-8 0 -16 -5t-15 -5q-32 0 -49 45q-14 32 -14 53q0 46 55 101q86 83 123 133q15 238 176 416q-3 19 18 59q20 39 33 39q70 4 137 16q14 3 41.5 8.5t40.5 8.5h9q68 0 128 -43q64 -46 64 -117v-6q-3 -158 -113 -307 q-81 -108 -209 -201q-20 -13 -59 -41t-59 -41q-3 -4 -3 -11q0 -36 64 -155q75 -141 166 -252q97 -122 151 -122q4 0 7 1q9 1 30 -1.5t23 -2.5q20 0 33.5 -11t11.5 -23q-7 -24 -55 -39q-40 -15 -56 -15h-6q-110 0 -229 113q-87 87 -172 225q-16 26 -45 78t-45 78 q-26 -82 -60 -203q-37 -139 -37 -229q-5 -19 -14 -58t-14 -59q-35 -109 -80 -109q-28 0 -49 56q-15 44 -15 76zM426 786q70 34 178 148q129 135 129 225q0 86 -65 86q-93 0 -170 -209q-28 -101 -72 -250z" />
<glyph unicode="S" horiz-adv-x="774" d="M63 1008q0 206 168 331q153 117 363 117q22 0 68 -4q50 -6 100 -59q49 -52 49 -103q0 -76 -61 -76q-15 0 -66 39q-53 41 -98 41h-8q-146 0 -259 -104q-98 -88 -98 -160q0 -87 103 -217q49 -63 194 -238q107 -149 113 -288v-14q0 -138 -109 -265q-113 -131 -243 -131 q-7 0 -28.5 -4t-29.5 -4q-41 0 -67 63q-19 47 -21 68q-1 6 -1 12q0 55 77 111q46 -24 51 -29q24 -24 29 -59h24q56 0 117 94q55 82 55 139q0 84 -45 158q-23 41 -84 119q-129 144 -196 225q-97 117 -97 238z" />
<glyph unicode="T" horiz-adv-x="1069" d="M-41 1149q0 66 127 104q98 29 188 29q47 0 252 25q-2 34 -2 63q0 154 68 154q14 0 20 -2q12 -4 26 -8.5t19.5 -6.5t6.5 -2q22 -13 22 -41l-8 -139q1 0 23 0.5t70 1.5t103 2q188 6 199 6q98 0 137 -39v-30q-12 -2 -548 -99q-27 -116 -82 -555q-60 -482 -60 -559l-10 -92 q-38 -46 -77 -46q-5 0 -9 1q-18 2 -32.5 24t-14.5 50l133 1169q-19 0 -55 -8t-49 -8q-17 0 -162 -23q-147 -26 -211 -49q-12 -4 -19 -4q-22 0 -38.5 27.5t-16.5 54.5z" />
<glyph unicode="U" horiz-adv-x="1011" d="M51 205q-1 7 -1 19q0 70 34 300q46 339 100 535q74 281 150 284q9 0 30 -4t25 -4q19 -62 19 -82l-8 -20l-46 -150q-54 -180 -100 -397q-52 -264 -61 -473q0 -53 16 -66q119 27 303 471q184 438 193 717q21 21 28 27q2 2 12 2q38 0 93 -43q61 -49 61 -102q0 -11 -20 -50 q-29 -50 -37 -71q-16 -46 -51 -244q-31 -176 -31 -283q0 -28 2 -51q11 -100 41 -201q52 -172 117 -172h26q13 -3 25 5q29 6 39 -23v-39q-29 -29 -56 -41q-7 -3 -16.5 -8t-13 -6.5t-9.5 -3t-12 -2t-16 -0.5q-143 0 -225 211q-50 132 -64 270q-57 -144 -139 -295 q-157 -281 -273 -281q-93 0 -120 117q-15 65 -15 154z" />
<glyph unicode="V" horiz-adv-x="925" d="M-4 1405q0 41 32 68.5t76 27.5q57 0 76 -22q22 -22 43 -172q7 -64 43 -314q78 -487 78 -645q0 -25 -2 -41q6 -22 16 -22q15 0 27 45q14 45 70 236.5t98 332.5q23 77 71.5 229.5t71.5 229.5q116 321 209 321q70 0 70 -107v-9q-3 -53 -55 -99q-64 -58 -76 -88 q-64 -184 -172 -540q-148 -498 -195 -643q-5 -20 -47 -187q-46 -147 -92 -147q-125 0 -125 241q-3 212 -55 615q-40 290 -88 502q-6 29 -41 104q-33 70 -33 84z" />
<glyph unicode="W" horiz-adv-x="1271" d="M63 1368v7q0 52 41 61q11 2 21 2q41 0 74 -37q33 -39 63 -334q24 -258 51 -516l15 -14q23 64 70 194t71 195q120 323 188 329h7q42 0 65 -32q24 -35 27 -70q3 -23 0 -63q-4 -78 -4 -107q0 -151 28 -485q2 -35 11 -74q12 -58 30 -70q22 25 82 250q69 270 117 438 q83 270 164 390q27 12 49 12q37 0 61 -49q1 -7 3 -22.5t3 -22.5q2 -14 2 -28t-2 -26q-64 -50 -118 -188q-19 -51 -64 -219q-56 -243 -108 -486q-94 -367 -197 -376h-8q-71 0 -111 106q-20 40 -41 131q-35 144 -47 309l-12 314q-43 -34 -135 -447q-89 -399 -92 -516 q-18 -102 -88 -102q-54 9 -76 31q-28 22 -31 71q10 85 10 197q0 240 -37 610l-18 174l-18 174z" />
<glyph unicode="X" horiz-adv-x="1079" d="M-113 -141l7 51q-3 41 550 735q0 13 -43 80q-51 83 -65 111q-33 62 -64 159q-21 65 -30.5 126t-9.5 89l1 29q0 208 132 211q26 0 53 -37q22 -31 22 -43q-8 -36 -26 -108q-5 -15 -5 -42q0 -12 1 -26q6 -198 141 -403q123 192 176 299q-15 9 -39 36q19 44 129 174 q113 134 131 134q15 4 29 4q26 0 45 -15q21 -12 27 -98l-418 -639q185 -277 223 -334q182 -271 182 -286q9 -35 -4 -54q-16 -26 -41 -26q-10 0 -22 4q-135 148 -449 536l-536 -727q-11 -2 -22 -2q-20 0 -36 8q-30 12 -39 54z" />
<glyph unicode="Y" horiz-adv-x="962" d="M61 1184q0 118 17 184q27 94 104 94q17 0 45 -32q33 -33 33 -48q0 -7 -9 -49.5t-17.5 -115t-8.5 -150.5q0 -326 101 -500q12 -6 24 -6q50 0 96 82l289 553q156 301 209 301q39 0 60.5 -38t21.5 -87q0 -11 -18 -26q-93 -78 -217 -347q-184 -396 -234 -481 q-144 -249 -156 -498q-1 -20 -1 -38q0 -48 6 -82q10 -65 10 -78q0 -8 16.5 -36t16.5 -32q0 -22 -13 -45q-19 -28 -43 -28q-30 0 -71 65q-35 59 -35 80q0 2 -0.5 11.5t-1.5 28t-2 36.5q-6 74 -9 135v16q0 37 5 133q4 47 7 100.5t3 59.5q-99 83 -168 361q-60 252 -60 477z" />
<glyph unicode="Z" horiz-adv-x="1234" d="M49 1270q0 88 80 88q43 0 172 -17l434 66q222 16 305 16q29 -3 49.5 -14.5t29 -26t11.5 -25.5t3 -20q0 -17 -332 -510q-356 -528 -432 -677q388 -109 503 -109q196 -21 226 -23q139 -18 139 -57q0 -13 -20 -35t-31 -22l-447 8q-13 0 -235 37q-228 35 -234 35 q-24 0 -63 -39h-10q-39 0 -58 22q-16 20 -35 70q37 30 37 63q0 5 -3 23t-3 22q0 37 49 48q11 3 22 5.5t15.5 3.5t5.5 1q58 46 138 194q159 229 536 860q-20 5 -70 5q-32 0 -284 -41q-237 -39 -363 -39q-2 0 -44.5 4t-57.5 4q-4 11 -27 37q-6 35 -6 43z" />
<glyph unicode="a" horiz-adv-x="899" d="M55 154q0 142 181 344t323 202q37 0 64 -53q22 -42 22 -61q0 -20 -14 -58q-11 -39 -21 -45q33 -28 41 -34q27 -24 27 -39q0 -18 -33 -103q-31 -91 -31 -121q0 -21 11 -28q31 -31 67 -31q48 0 170 35q9 0 15 -4.5t8 -9t4.5 -13.5t3.5 -12q-95 -139 -219 -139h-56 q-53 0 -104 45q-52 46 -63 84q-19 -11 -59.5 -33.5t-59.5 -34.5q-83 -45 -135 -45q-62 0 -105 55q-37 49 -37 99zM211 174q2 -17 24 -17q12 0 31 5q80 63 144 119q91 84 133 159q-47 47 -47 82q0 15 2 21q-109 -44 -193 -168q-72 -103 -94 -201z" />
<glyph unicode="b" horiz-adv-x="829" d="M18 420q3 77 144 143q1 38 1 84q0 91 -5 211q-6 237 -6 328q0 381 75 381q42 0 60 -21q21 -21 24 -137q0 -22 -6 -133q-13 -185 -16 -678q26 3 66 3t94 -3q133 -12 192 -47q61 -34 107 -86q51 -57 51 -125q0 -99 -133 -182q-132 -63 -244 -123q-130 -67 -127 -139 q-20 -2 -39 -2q-51 0 -88 18q-17 0 -31 39q-16 43 -16 57q0 19 29 51q28 36 28 45q0 93 -22 250q-22 -16 -60 -22l-45 14q-30 3 -33 74zM295 432l16 -262q3 -41 11 -41q78 38 188 96q125 64 137 109q-53 99 -180 108q-46 4 -81 4q-64 0 -91 -14z" />
<glyph unicode="c" horiz-adv-x="772" d="M47 123v6q0 193 189 436q188 244 329 244q39 0 69 -20t30 -50q0 -10 -31 -67q-9 1 -18 1q-101 0 -257 -186q-161 -193 -161 -313q0 -40 53 -61q35 -15 59 -15q9 0 53 6q46 6 70 15q30 10 121 49q95 41 102 43q13 2 22.5 0.5t19.5 -5t12 -3.5q0 -2 2 -4q10 -10 10 -25 q0 -69 -199 -151q-176 -74 -254 -74h-6q-66 3 -133 49q-79 55 -82 125z" />
<glyph unicode="d" horiz-adv-x="952" d="M31 160q18 135 170 338q157 209 275 209h3h94q20 82 57 233.5t50 206.5q99 338 227 338q18 0 45 -24t27 -38l-68 -98q-76 -112 -96 -195q-188 -708 -188 -1015q0 -95 108 -133v-31q0 -26 -41 -35q-24 -6 -40 -6q-13 0 -21 4q-144 64 -144 209q0 6 2 27t3 34 q-16 -29 -119 -112q-97 -76 -135 -84q-20 -11 -51 -11q-24 0 -54 7q-43 8 -78 67q-27 46 -27 92q0 8 1 17zM229 152q6 0 13 2q208 70 303 370l-19 16q-20 15 -30 15q-72 0 -193 -154q-110 -139 -110 -201q0 -48 36 -48z" />
<glyph unicode="e" horiz-adv-x="745" d="M74 223q0 4 2 23.5t4.5 60.5t3.5 94q206 369 399 369q138 0 138 -102q0 -140 -127 -267q-111 -114 -263 -153q-2 -13 -2 -26q0 -63 52 -97q50 -29 112 -29q46 0 142 47t133 99q25 23 40 23q21 0 23 -44q-19 -50 -49 -90l-76 -78q-117 -86 -260 -102q-122 0 -197 77 t-75 195zM270 430q163 58 213 176q-13 11 -29 11q-5 0 -10 -1q-41 -8 -98 -75q-45 -51 -76 -111z" />
<glyph unicode="f" horiz-adv-x="618" d="M47 442q0 45 22 65.5t89 37.5q0 46 -4 82v48q0 259 30 437q64 374 250 374q11 0 23 -1q107 -11 107 -151q0 -11 -1 -23l-10 -60q-18 -24 -29 -24q-28 -18 -37 10l-6 25q-2 14 -2 45q-9 26 -45 26q-32 0 -72 -98q-12 -30 -21 -55.5t-15 -52t-8.5 -36t-7.5 -40.5t-5 -33 q-10 -72 -10 -221q0 -186 8 -238h92q55 -2 115 -2q110 -27 119 -63q-15 -41 -88 -68q-11 0 -78 -12q-18 -2 -37.5 -5t-28.5 -4.5t-12 -1.5q-35 0 -60.5 -11.5t-25.5 -22.5q0 -20 20 -181q6 -48 12 -93t8.5 -64t2.5 -21q0 -9 -29 -59q-26 -45 -39 -45q-98 0 -98 258v63 q2 27 2 56q0 80 -12 92q-119 21 -119 67z" />
<glyph unicode="g" horiz-adv-x="876" d="M-426 -827q0 328 260 477q192 110 490 110q211 0 434 -55q-3 83 -121 471q-23 -44 -127 -98q-99 -51 -152 -51h-41q-105 0 -165 84q-46 67 -46 153q0 169 121 320q131 168 314 168q80 0 121 -68q14 -33 51 -156q2 -4 13.5 -17.5t22 -31t13.5 -35.5t-6 -59 q-11 -57 -11 -68q0 -3 5 -28q87 -299 116 -422q6 -30 47 -227q304 -135 304 -183q0 -45 -33 -45q-15 0 -105 43q-103 50 -149 66q3 -17 8 -49t8 -47q5 -54 5 -176q0 -52 -1 -117q-9 -272 -174 -449q-164 -170 -391 -170q-279 0 -524 160q-287 195 -287 500zM-289 -840 q0 -217 223 -372q194 -138 383 -138q268 0 390 152q106 132 106 412q0 231 -29 344q-183 75 -374 75q-33 0 -66 -2q-633 -30 -633 -471zM248 281q27 -117 106 -117q100 0 170 123q60 105 60 184q0 73 -31 133q-16 7 -66 10q-91 0 -174 -141q-67 -111 -67 -171q0 -12 2 -21z " />
<glyph unicode="h" horiz-adv-x="798" d="M78 78q0 316 76 721q21 94 58.5 271.5t55.5 258.5q55 159 58 166q46 98 123 98q16 0 40 -30q25 -31 25 -47t-25 -58q-4 -7 -12 -20.5t-12 -20.5q-77 -159 -156 -561q-64 -321 -88 -530l8 -113q71 117 138 231q87 134 151 134q49 0 76 -89q17 -54 31 -182q15 -117 30 -147 q31 8 56 8q59 0 59 -43q0 -36 -72 -80q-56 -39 -73 -39q-83 0 -123 162q-8 31 -29 172q-25 -19 -143 -215q-108 -178 -137 -178q-49 0 -84 47q-31 42 -31 84z" />
<glyph unicode="i" horiz-adv-x="391" d="M106 371q4 124 4 187.5t-4 68.5l19 55q15 37 65 37q72 0 72 -101q0 -26 -6 -67t-6 -43v-209q0 -201 88 -399q-15 -35 -55 -35q-54 0 -140 170q-38 162 -38 299q0 19 1 37zM174 1014q0 47 37 71q21 15 76 15q32 0 69 -13q43 -18 43 -49q0 -47 -34 -71q-65 -45 -109 -45 q-42 0 -63 34q-19 28 -19 58z" />
<glyph unicode="j" horiz-adv-x="450" d="M-375 -985q0 39 33 106q31 72 63 86q21 -12 21 -65q0 -18 -3 -57.5t-3 -40.5q0 -185 96 -185q227 0 322 602q49 316 49 658q0 198 -29 366q-27 156 -27 174q0 34 28 60t69 26q28 0 69 -38q35 -158 35 -680q0 -407 -92 -775q-132 -520 -397 -520q-102 0 -172 107 q-62 89 -62 176zM174 1149q0 57 51 72q11 3 39.5 10t44.5 10q47 -6 68 -49q-2 -7 -8.5 -25t-13.5 -37t-13 -38q-54 -43 -100 -43h-6q-62 15 -62 100z" />
<glyph unicode="k" horiz-adv-x="759" d="M74 -4l110 919q25 165 62 349q58 289 155 295q15 3 27 3q47 0 59 -49q-93 -148 -143 -454q-49 -263 -63 -451q-7 -72 -7 -112q0 -37 2 -37q67 91 125 164q132 170 179 182q12 4 20 4q24 0 53 -33q0 -48 -127 -225q-126 -173 -123 -219q21 -44 345 -330q-14 -49 -78 -49 h-8h-3q-49 0 -194 96q-78 55 -164 135q-20 -35 -70 -143q-65 -115 -94 -115h-3q-18 0 -36 20q-20 22 -24 50z" />
<glyph unicode="l" horiz-adv-x="444" d="M90 164q0 182 53 561q35 201 84 604q1 16 2 47.5t2 46.5q3 36 7 57t14.5 42t31.5 30.5t54 10.5q18 0 36.5 -24t18.5 -38q3 -25 -92 -639q-86 -576 -86 -720v-17q3 -164 35 -223q3 -43 -25 -52q-3 -6 -28 -12h-3q-40 0 -66 59q-26 61 -36 183q-2 25 -2 84z" />
<glyph unicode="m" horiz-adv-x="1183" d="M61 94q0 71 64 318q25 87 63 239q51 25 72 27q6 2 12 2t12 -2q12 -4 21.5 -10t11.5 -6q9 -10 13 -27q3 -10 0 -27q-1 -5 -2 -10.5t-1.5 -8t-0.5 -3.5q0 -3 -47 -142q-48 -142 -48 -174q29 19 68 76q40 58 63 78q46 37 115 37q28 0 49 -96q27 -125 29 -127q24 19 72 58.5 t71 59.5q120 99 187 99q38 0 73 -121q23 -82 39 -152q23 16 78.5 53t85.5 58q37 18 53 18q15 0 15 -47q-90 -120 -111 -141q-87 -96 -153 -96q-71 0 -101 86q-24 109 -24 163q-2 0 -6 3.5t-13 3.5q-4 0 -143 -136q-135 -135 -139 -135q-6 -2 -17.5 -7t-22 -7.5t-24.5 -1.5 q-43 15 -55 104q-9 103 -14 144q-20 -24 -59 -70.5t-58 -69.5q-107 -122 -146 -122q-37 0 -61 49q-21 37 -21 63z" />
<glyph unicode="n" horiz-adv-x="811" d="M72 6q0 82 47 387q59 369 112 369q34 0 60 -22t26 -48q0 -46 -69 -338l-8 -73q15 36 108 153q104 130 159 130q4 0 7 -1q83 -3 92 -119q9 -138 15 -276q24 5 96 53q99 65 135 84q18 -21 18 -35q0 -54 -147 -174q-137 -110 -170 -110q-61 0 -76 151q-6 76 -14 221 q-66 -81 -109 -131q-59 -65 -127 -207q-52 -104 -90 -104q-30 0 -51 41q-14 28 -14 49z" />
<glyph unicode="o" horiz-adv-x="616" d="M49 180q2 57 27 174q27 125 67 185q18 27 53 81t52 82q59 83 127 89q16 0 37 -21q28 -28 28 -57q0 -15 -2 -21q45 -13 80.5 -70t40.5 -112q1 -17 1 -34q0 -129 -58 -292q-88 -239 -265 -239q-14 0 -30 2q-90 34 -131 114q-27 58 -27 109v10zM190 186q2 -27 26 -55 q23 -27 46 -27h2q72 3 125 179q37 130 37 191v9q-3 46 -15 68q-11 20 -29 20h-3q-63 -3 -131 -157q-59 -131 -58 -213q-1 -8 0 -15z" />
<glyph unicode="p" horiz-adv-x="729" d="M-10 547q0 40 10 53q18 21 80 74q51 39 51 53q0 19 -37 92q-30 59 -30 86q0 8 2 13q2 10 53 45l53 -2q11 -8 21 -25q10 -23 18 -39q3 -6 49 -133q40 6 80 6q180 0 274 -111q80 -89 80 -208q0 -91 -90 -175q-113 -104 -307 -110q-9 5 -12 -12q-2 -11 -2 -35 q-3 -115 -21 -293q-26 -254 -26 -256q-10 -134 -41 -215q-4 -12 -60 -39q-34 34 -55 158q-17 107 -17 180q0 24 52 70q12 64 28 323q13 229 13 305v8q-1 9 -2 27t-2 39q-2 47 -2 100q-24 -35 -89 -65l-34 20q-37 27 -37 66zM287 590l2 -228v-9q0 -18 2.5 -22.5t19.5 -12.5 q10 -6 17 -9q71 3 145 45q84 53 84 115q0 56 -51 104q-51 46 -120 46q-9 0 -17 -1q-30 -3 -45 -6q-30 -10 -37 -22z" />
<glyph unicode="q" horiz-adv-x="811" d="M39 311q0 132 154 277q155 143 290 143q38 0 103 -47q17 51 27.5 111t14 97t5.5 40q12 26 78 26q28 0 54 -20.5t26 -48.5q0 -4 -25 -84q-31 -93 -35 -119q-29 -148 -29 -180q0 -28 7 -45q-33 -129 -84 -408l-90 -592q82 40 110 52q101 49 127 49q77 -3 98 -27 q1 -3 4.5 -12t4.5 -15q-14 -17 -107 -69q-118 -70 -162 -107q-85 -70 -94 -141q-1 -19 -30 -40t-50 -21q-46 0 -61 63q-22 85 -39 105q79 201 88 362l88 539l-6 39q-26 -20 -105 -48q-88 -36 -125 -36h-63q-51 0 -109 43q-65 50 -65 114zM182 344q0 -25 39 -39 q27 -12 55 -12h39q37 0 129 53q109 62 109 117q0 14 -10 24q-10 0 -22 -2t-19 -4l-8 -2q-47 96 -74 96q-60 0 -148 -94q-90 -96 -90 -137z" />
<glyph unicode="r" horiz-adv-x="712" d="M49 51l29 451q3 25 8 77.5t8 79.5q21 145 82 148q17 0 33.5 -11t17.5 -24q0 -7 -12 -115q-8 -71 -8 -116q0 -23 2 -39q107 144 153 188q93 87 216 96h7q42 0 68 -32q25 -31 31 -78q0 -3 1 -7q0 -28 -21 -75q-20 -48 -48 -51q-16 -2 -47 8q-12 20 -12 46q0 19 6 40l-16 12 q-169 -73 -271 -270q-83 -165 -86 -326q-3 -76 -4 -78q-9 -40 -57 -43h-9q-49 0 -63 31q-5 10 -8 88z" />
<glyph unicode="s" horiz-adv-x="704" d="M35 -2q12 58 65 96l56 39q8 0 36.5 5t36.5 5q20 0 33 -10q22 -15 25 -39q3 -26 10 -37q44 6 82.5 47.5t38.5 85.5q0 101 -142 228q-139 127 -139 209q0 101 105 147q78 35 186 35q72 0 154 -39q102 -46 102 -111q0 -63 -51 -63q4 0 -7 7l-46 24q-61 30 -168 30 q-30 0 -62 -16q-38 -17 -35 -49q5 -31 64 -90q73 -71 108 -115q59 -80 68 -168q2 -16 2 -31q0 -135 -121 -219q-115 -80 -254 -80h-51q-26 0 -57 35.5t-39 73.5z" />
<glyph unicode="t" horiz-adv-x="714" d="M23 647q0 68 106 68q75 0 131 6q16 100 55 287q24 110 50 176q43 98 99 98h7q8 -2 45 -31q33 -26 33 -45l-1 -3q-1 -3 -4 -10.5t-6.5 -17t-9.5 -26t-11.5 -32t-14.5 -40.5t-17 -47q-63 -184 -79 -303l88 6q96 0 120 -8q17 -14 17 -27l-8 -17l-9 -30q-162 -64 -227 -73 q-16 -43 -16 -162q0 -127 22 -223q27 -113 82 -113q35 0 88 47t60 47q5 0 15 2t13 2q17 0 33 -31v-30q-17 -55 -102 -115q-80 -57 -140 -57q-215 0 -215 434q0 87 9 182q-17 0 -72 -8q-59 -6 -70 -6q-35 0 -55 39q-16 32 -16 61z" />
<glyph unicode="u" horiz-adv-x="845" d="M61 156q0 112 33 286q27 120 51 240q26 57 84 57q49 0 58 -100q0 -22 -47 -168q-45 -139 -45 -213q0 -14 -2 -41q-3 -34 0 -55q7 -33 18 -53q9 -3 14 -3q62 0 174 189q114 188 150 188q47 0 47 -69q0 -13 -4 -69t-4 -73q0 -112 94 -112q5 0 53 28q70 36 72 37 q35 -12 35 -51q0 -42 -90 -108q-82 -58 -111 -58q-103 0 -182 129q-95 -89 -113 -106q-102 -97 -170 -97t-98 101q-17 66 -17 121z" />
<glyph unicode="v" horiz-adv-x="712" d="M43 649q0 32 49 62q39 26 55 26q71 0 86 -86q7 -32 7 -131q0 -98 4 -168q3 -23 6.5 -49t5 -38.5t2.5 -16.5l21 -58q20 40 90 230q70 193 86 215q110 180 155 180q34 0 56 -29.5t22 -68.5l-42 -46q-4 -5 -15 -17l-1 -1l-1 -1v-1l-2 -2q-67 -79 -86 -127 q-89 -243 -211 -536q-6 -19 -30 -41.5t-40 -22.5q-58 0 -98 141q-22 82 -31 160q-10 91 -49 262q-39 157 -39 164z" />
<glyph unicode="w" horiz-adv-x="872" d="M29 643q22 45 75 68q15 6 29 6q67 0 88 -113q2 -6 2 -143q3 -142 4 -144q2 -11 17 -59q31 45 73 156q38 100 66 141q38 54 97 54q9 0 18 -1q44 -52 53 -162q2 -61 10 -178l12 -41q24 24 91 260q64 224 98 230q13 3 30 6l11 2q37 0 57 -45q-14 -52 -57 -182 q-35 -120 -117 -387q-23 -57 -45.5 -92.5t-36 -46t-24.5 -11.5q-41 3 -72 31q-9 23 -26.5 68t-26.5 67q-32 89 -41 162q-17 -32 -47 -94.5t-43 -88.5q-77 -154 -103 -157q-4 -1 -8 -1q-33 0 -63 44q-26 40 -31 74q-12 79 -23 202q-14 150 -22 203q-7 47 -45 172z" />
<glyph unicode="x" horiz-adv-x="675" d="M27 -45q-1 8 -1 17q0 82 78 188q89 121 89 127q-19 57 -52 153q-14 42 -25.5 79.5t-17.5 55.5t-6 19v9q0 32 25 62q29 35 65 37h4q47 0 86 -129q30 -117 35 -141q25 33 72.5 95t60.5 79q106 127 156 133q5 1 10 1q47 0 53 -54q6 -47 -141 -203q-146 -155 -143 -194 q9 -70 80 -123q73 -49 73 -66q2 -18 -8 -37.5t-22 -19.5q-5 -1 -11 -1q-74 0 -235 110q-93 -181 -90 -228q-5 0 -22.5 -10.5t-24.5 -11.5q-7 0 -47 18q-37 17 -41 35z" />
<glyph unicode="y" horiz-adv-x="944" d="M-4 -1010q0 116 70 250t184 242h33q-38 -59 -93 -193q-69 -162 -69 -261q0 -18 2 -34q58 -247 332 -247q211 0 370 120q176 135 176 351q0 430 -391 1101q-60 -111 -174 -231q-131 -137 -211 -137q-88 0 -114 63q-17 42 -17 136q0 123 23 309q37 284 116 348q2 2 9 2 q7 1 13 1q29 0 41 -15q15 -18 15 -39v1q-2 0 -22 -90l-13 -57q-47 -220 -47 -403q0 -55 9 -76q69 0 157 135q61 92 144 252q72 141 90 144q7 1 13 1q32 0 42 -40q3 -54 25 -172q11 -22 180 -373q110 -233 170 -402q80 -242 80 -438q0 -303 -201 -477q-190 -158 -487 -158 q-178 0 -310 99q-145 109 -145 288z" />
<glyph unicode="z" horiz-adv-x="778" d="M47 80v6q0 71 195 221q265 203 280 230q-47 12 -92 12q-48 0 -94 -14q-86 -29 -121 -39q-8 -1 -16 -1q-71 0 -115 76q-2 43 55.5 73t175.5 50q29 3 65 3q59 0 134 -9q171 -24 180 -98q1 -6 1 -11q0 -68 -97 -165q-59 -62 -209 -172q-123 -92 -141 -121q26 -15 86 -15 q46 0 112 9q68 11 201 37q2 0 29.5 5t45 4t23.5 -11l7 -37q-15 -49 -101 -84q-93 -33 -200 -58l-164 -26h-17q-61 0 -131 18q-83 44 -92 117z" />
<glyph unicode="&#x2000;" horiz-adv-x="839" />
<glyph unicode="&#x2001;" horiz-adv-x="1679" />
<glyph unicode="&#x2002;" horiz-adv-x="839" />
<glyph unicode="&#x2003;" horiz-adv-x="1679" />
<glyph unicode="&#x2004;" horiz-adv-x="559" />
<glyph unicode="&#x2005;" horiz-adv-x="419" />
<glyph unicode="&#x2006;" horiz-adv-x="279" />
<glyph unicode="&#x2007;" horiz-adv-x="279" />
<glyph unicode="&#x2008;" horiz-adv-x="209" />
<glyph unicode="&#x2009;" horiz-adv-x="335" />
<glyph unicode="&#x200a;" horiz-adv-x="93" />
<glyph unicode="&#x202f;" horiz-adv-x="335" />
<glyph unicode="&#x205f;" horiz-adv-x="419" />
<glyph unicode="&#x25fc;" horiz-adv-x="737" d="M0 0v737h737v-737h-737z" />
</font>
</defs>
</svg>
